<svg xmlns="http://www.w3.org/2000/svg" width="184" height="120" viewBox="0 0 184 120">
  <g id="グループ_5" data-name="グループ 5" transform="translate(-224 -152)">
    <g id="パス_2" data-name="パス 2" transform="translate(224 152)" fill="rgba(45,46,51,0)">
      <path d="M 168 116.5 L 16 116.5 C 12.66113185882568 116.5 9.52210521697998 115.1997604370117 7.161158084869385 112.8388442993164 C 4.800236701965332 110.477897644043 3.5 107.3388671875 3.5 104 L 3.5 16 C 3.5 12.66113185882568 4.800236701965332 9.52210521697998 7.161158084869385 7.161158084869385 C 9.52210521697998 4.800236701965332 12.66113185882568 3.5 16 3.5 L 168 3.5 C 171.3388671875 3.5 174.4778900146484 4.800236701965332 176.8388366699219 7.161158084869385 C 179.1997680664062 9.52210521697998 180.5 12.66113185882568 180.5 16 L 180.5 104 C 180.5 107.3388671875 179.1997680664062 110.477897644043 176.8388366699219 112.8388442993164 C 174.4778900146484 115.1997604370117 171.3388671875 116.5 168 116.5 Z" stroke="none"/>
      <path d="M 16 7 C 11.03738403320312 7 7 11.03738403320312 7 16 L 7 104 C 7 108.9626159667969 11.03738403320312 113 16 113 L 168 113 C 172.9626159667969 113 177 108.9626159667969 177 104 L 177 16 C 177 11.03738403320312 172.9626159667969 7 168 7 L 16 7 M 16 0 L 168 0 C 176.8365631103516 0 184 7.163444519042969 184 16 L 184 104 C 184 112.836555480957 176.8365631103516 120 168 120 L 16 120 C 7.163436889648438 120 0 112.836555480957 0 104 L 0 16 C 0 7.163444519042969 7.163436889648438 0 16 0 Z" stroke="none" fill="#d3d8e3"/>
    </g>
    <g id="パス_4" data-name="パス 4" transform="translate(254 176)" fill="rgba(45,46,51,0)">
      <path d="M 14 26 C 10.79467964172363 26 7.781219959259033 24.75177955627441 5.51471996307373 22.48527908325195 C 3.248219966888428 20.21878051757812 2 17.20532035827637 2 14 C 2 10.79467964172363 3.248219966888428 7.781219959259033 5.51471996307373 5.51471996307373 C 7.781219959259033 3.248219966888428 10.79467964172363 2 14 2 C 17.20532035827637 2 20.21878051757812 3.248219966888428 22.48527908325195 5.51471996307373 C 24.75177955627441 7.781219959259033 26 10.79467964172363 26 14 C 26 17.20532035827637 24.75177955627441 20.21878051757812 22.48527908325195 22.48527908325195 C 20.21878051757812 24.75177955627441 17.20532035827637 26 14 26 Z" stroke="none"/>
      <path d="M 14 4 C 8.485979080200195 4 4 8.485979080200195 4 14 C 4 19.51401901245117 8.485979080200195 24 14 24 C 19.51401901245117 24 24 19.51401901245117 24 14 C 24 8.485979080200195 19.51401901245117 4 14 4 M 14 0 C 21.73197937011719 0 28 6.268009185791016 28 14 C 28 21.73197937011719 21.73197937011719 28 14 28 C 6.268009185791016 28 0 21.73197937011719 0 14 C 0 6.268009185791016 6.268009185791016 0 14 0 Z" stroke="none" fill="#d3d8e3"/>
    </g>
    <g id="前面オブジェクトで型抜き_1" data-name="前面オブジェクトで型抜き 1" transform="translate(110 1970)" fill="rgba(45,46,51,0)">
      <path d="M 171.3167266845703 -1724.000366210938 L 143.6833648681641 -1724.000366210938 L 154.1570892333984 -1759.14013671875 C 155.2549743652344 -1758.880493164062 156.3728790283203 -1758.749633789062 157.4995880126953 -1758.749633789062 C 158.6265258789062 -1758.749633789062 159.7446136474609 -1758.880493164062 160.8424224853516 -1759.140014648438 L 171.3167266845703 -1724.000366210938 Z" stroke="none"/>
      <path d="M 168.6336059570312 -1726.000366210938 L 159.4341125488281 -1756.86328125 C 158.7931365966797 -1756.78759765625 158.1478118896484 -1756.749633789062 157.4995880126953 -1756.749633789062 C 156.8515472412109 -1756.749633789062 156.206298828125 -1756.78759765625 155.5654144287109 -1756.86328125 L 146.3664398193359 -1726.000366210938 L 168.6336059570312 -1726.000366210938 M 173.9998016357422 -1722.000366210938 L 173.9982757568359 -1722.000366210938 L 141.0003051757812 -1722.000366210938 L 152.8191986083984 -1761.653198242188 C 154.3319091796875 -1761.053833007812 155.9062042236328 -1760.749633789062 157.4995880126953 -1760.749633789062 C 159.0924530029297 -1760.749633789062 160.6672668457031 -1761.053588867188 162.1802673339844 -1761.653198242188 L 173.9992370605469 -1722.002319335938 L 173.9998016357422 -1722.000366210938 Z" stroke="none" fill="#d3d8e3"/>
    </g>
    <line id="線_6" data-name="線 6" x2="64" transform="translate(304 216)" fill="none" stroke="#d3d8e3" stroke-linecap="round" stroke-width="7"/>
    <path id="パス_3" data-name="パス 3" d="M0,0H80" transform="translate(304 192)" fill="rgba(45,46,51,0)" stroke="#d3d8e3" stroke-linecap="round" stroke-width="7"/>
    <line id="線_8" data-name="線 8" x2="64" transform="translate(304 240)" fill="none" stroke="#d3d8e3" stroke-linecap="round" stroke-width="7"/>
  </g>
</svg>
